# xmcd
#
# Track frame offsets:
#	150
#	15375
#	36000
#	49125
#	66150
#	81600
#	97725
#	112875
#	130050
#	144300
#	158625
#	171225
#	186375
#	202050
#	220125
#	235950
#	258600
#	273975
#
# Disc length: 3918 seconds
#
# Revision: 1
# Processed by: cddbd v1.5.1PL2 Copyright (c) Steve Scherf et al.
# Submitted via: audiograbber 1.83.01
#
DISCID=fe0f4c12
DTITLE=Pioneer - P218
DYEAR=1900
DGENRE=Karaoke Country
TTITLE0=Brooks and Dunn - My Maria
TTITLE1=Wynonna - To Be Loved By You
TTITLE2=Brooks and Dunn - Hard Workin' Man
TTITLE3=James House - Anything For Love
TTITLE4=Joe Diffie - I'm In Love With A Capital You
TTITLE5=Brooks and Dunn - She's Not The Cheatin' Kind
TTITLE6=Doug Supernaw - Not Enough Hours In The Night
TTITLE7=Brooks and Dunn - That Ain't No Way To Go
TTITLE8=Lonestar - No News
TTITLE9=Brooks and Dunn - Whiskey Under The Bridge
TTITLE10=Collin Raye - I Want You Bad (And That Ain't Good)
TTITLE11=Michael Montgomery - Cowboy Love
TTITLE12=Wade Hayes - I'm Still Dancin' With You
TTITLE13=Patty Loveless - You Don't Even Know Who I Am
TTITLE14=Faith Hill - Let's Go To Vegas
TTITLE15=Brooks and Dunn - You're Gonna Miss Me When I'm Gone
TTITLE16=George Strait - I Know She Still Loves Me
TTITLE17=Tracy Byrd - Keeper Of The Stars
EXTD=
EXTT0=
EXTT1=
EXTT2=
EXTT3=
EXTT4=
EXTT5=
EXTT6=
EXTT7=
EXTT8=
EXTT9=
EXTT10=
EXTT11=
EXTT12=
EXTT13=
EXTT14=
EXTT15=
EXTT16=
EXTT17=
PLAYORDER=
